<svg xmlns="http://www.w3.org/2000/svg" xmlns:xlink="http://www.w3.org/1999/xlink" width="500" zoomAndPan="magnify" viewBox="0 0 375 374.999991" height="500" preserveAspectRatio="xMidYMid meet" version="1.0"><defs><clipPath id="394bc68d15"><path d="M 43 33 L 298 33 L 298 318 L 43 318 Z M 43 33 " clip-rule="nonzero"/></clipPath><clipPath id="15ca315f74"><path d="M 172.78125 -41.296875 L 412.382812 114.410156 L 277.109375 322.566406 L 37.507812 166.859375 Z M 172.78125 -41.296875 " clip-rule="nonzero"/></clipPath><clipPath id="fd0b5b7c71"><path d="M 172.78125 -41.296875 L 412.382812 114.410156 L 277.109375 322.566406 L 37.507812 166.859375 Z M 172.78125 -41.296875 " clip-rule="nonzero"/></clipPath><clipPath id="acd23dfc04"><path d="M 41 117 L 222 117 L 222 319 L 41 319 Z M 41 117 " clip-rule="nonzero"/></clipPath><clipPath id="140008ea99"><path d="M 133.328125 64.851562 L 303.125 175.191406 L 207.492188 322.347656 L 37.695312 212.007812 Z M 133.328125 64.851562 " clip-rule="nonzero"/></clipPath><clipPath id="b0812b8def"><path d="M 133.328125 64.851562 L 303.125 175.191406 L 207.492188 322.347656 L 37.695312 212.007812 Z M 133.328125 64.851562 " clip-rule="nonzero"/></clipPath></defs><g clip-path="url(#394bc68d15)"><g clip-path="url(#15ca315f74)"><g clip-path="url(#fd0b5b7c71)"><path fill="#23b5b5" d="M 287.074219 302.613281 L 297.308594 48.136719 L 297.257812 48.097656 C 297.511719 43.203125 295.285156 38.3125 290.882812 35.453125 C 286.9375 32.886719 282.199219 32.578125 278.113281 34.132812 L 278.082031 34.109375 L 277.929688 34.1875 C 277.164062 34.492188 276.433594 34.878906 275.722656 35.316406 L 51.589844 149.691406 L 51.589844 149.695312 C 49.097656 150.765625 46.878906 152.554688 45.292969 155 C 41.023438 161.570312 42.882812 170.355469 49.453125 174.621094 L 265.167969 314.808594 C 271.734375 319.074219 280.519531 317.207031 284.785156 310.636719 C 286.398438 308.15625 287.132812 305.363281 287.074219 302.613281 Z M 287.074219 302.613281 " fill-opacity="1" fill-rule="nonzero"/></g></g></g><g clip-path="url(#acd23dfc04)"><g clip-path="url(#140008ea99)"><g clip-path="url(#b0812b8def)"><path fill="#5e17eb" d="M 214.539062 308.246094 L 214.539062 308.242188 L 221.582031 128.21875 L 221.546875 128.191406 C 221.722656 124.730469 220.144531 121.265625 217.023438 119.238281 C 214.226562 117.421875 210.871094 117.199219 207.976562 118.292969 L 207.957031 118.28125 L 207.847656 118.335938 C 207.304688 118.550781 206.789062 118.820312 206.285156 119.128906 L 47.652344 199.871094 C 45.886719 200.625 44.320312 201.890625 43.195312 203.617188 C 40.175781 208.261719 41.503906 214.480469 46.15625 217.503906 L 199.035156 316.851562 C 203.6875 319.878906 209.90625 318.5625 212.925781 313.917969 C 214.0625 312.167969 214.582031 310.191406 214.539062 308.246094 Z M 214.539062 308.246094 " fill-opacity="1" fill-rule="nonzero"/></g></g></g></svg>